# xmcd CD database file
#
# Track frame offsets:
#	150
#	22565
#	41225
#
# Disc length: 845 seconds
#
# Revision: 0
# Processed by: cddbd v1.5.1PL2 Copyright (c) Steve Scherf et al.
# Submitted via: CDex 1.51
#
DISCID=17034b03
DTITLE=KAIFIVE - 嵐の明日
DYEAR=1993
DGENRE=JPop
TTITLE0=嵐の明日
TTITLE1=畔
TTITLE2=嵐の明日（オリジナル・カラオケ）
EXTD=YEAR: 1993/5/12
EXTT0=
EXTT1=
EXTT2=
PLAYORDER=
